<?xml version="1.0" encoding="iso-8859-1"?>
<!-- Generator: Adobe Illustrator 17.1.0, SVG Export Plug-In . SVG Version: 6.00 Build 0)  -->
<!DOCTYPE svg PUBLIC "-//W3C//DTD SVG 1.1//EN" "http://www.w3.org/Graphics/SVG/1.1/DTD/svg11.dtd">
<svg xmlns="http://www.w3.org/2000/svg" xmlns:xlink="http://www.w3.org/1999/xlink" version="1.1" id="Capa_1" x="0px" y="0px" viewBox="0 0 211.076 211.076" style="enable-background:new 0 0 211.076 211.076;" xml:space="preserve" width="512px" height="512px">
<path d="M105.471,211.076c-37.511,0-68.028-30.517-68.028-68.028v-0.988h-1.487c-11.568,0-20.979-9.411-20.979-20.979v-9.606  c0-11.568,9.411-20.979,20.979-20.979h1.487V59.579c0-11.853,5.485-23.119,14.753-30.465c-0.332-1.606-0.506-3.262-0.506-4.943  c0-4.32,2.3-8.756,6.152-11.868c0.039-0.031,0.078-0.061,0.119-0.09l2.334-1.666c0.082-0.059,0.169-0.113,0.258-0.162  c0.364-0.198,0.776-0.446,1.248-0.729c2.198-1.319,5.521-3.313,11.016-4.989l0.001,0c7.604-2.49,15.59-3.941,24.415-4.437  c33.861-1.897,64.038,8.07,73.362,24.252c1.194,1.927,2.006,3.411,2.797,5.112c7.617,16.383,1.424,33.581,0.106,36.86v24.042h1.624  c11.567,0,20.979,9.411,20.979,20.979v9.606c0,11.568-9.411,20.979-20.979,20.979h-1.624v0.988  C173.498,180.559,142.981,211.076,105.471,211.076z M42.442,139.561v3.488c0,34.754,28.274,63.028,63.027,63.028  c34.754,0,63.028-28.274,63.028-63.028v-21.191h-4.43c-0.668,0-1.309-0.268-1.777-0.742c-0.47-0.475-0.73-1.118-0.723-1.786  c0.004-0.29,0.304-29.081-1.926-37.996c-2.013-8.056-7.762-11.271-8.005-11.405c-0.597-0.325-1.041-0.882-1.221-1.536  c-0.18-0.655-0.092-1.358,0.254-1.941c0.033-0.055,3.432-5.876,3.581-11.458c0.023-0.867-3.572-2.989-8.323-4.343  c-5.404-1.154-9.566-1.095-9.663-1.091c-0.02,0-0.041,0-0.061,0h-52c-7.521,0-14.019-1.292-19.313-3.842  c-0.885-0.426-1.738-0.908-2.554-1.439c-2.335,2.7-5.657,7.304-5.648,10.775c0.014,5.525,3.522,11.304,3.559,11.362  c0.361,0.588,0.464,1.301,0.282,1.967s-0.63,1.229-1.24,1.552c-0.23,0.126-5.979,3.342-7.992,11.398  c-2.229,8.915-1.93,37.706-1.926,37.996c0.008,0.668-0.253,1.311-0.723,1.786c-0.469,0.475-1.109,0.742-1.777,0.742h-4.43V139.561z   M173.635,137.061h1.487c8.811,0,15.979-7.168,15.979-15.979v-9.606c0-8.811-7.168-15.979-15.979-15.979h-1.487V137.061z   M35.955,95.496c-8.812,0-15.979,7.168-15.979,15.979v9.606c0,8.811,7.168,15.979,15.979,15.979h1.487V95.496H35.955z   M166.585,116.857h1.913V66.592c-2.173-4.739-5.538-8.161-9.288-10.63c-0.302,4.366-1.991,8.548-3.146,10.954  c2.525,1.973,6.663,6.137,8.43,13.204C166.493,88.117,166.607,109.459,166.585,116.857z M42.442,116.857h1.913  c-0.022-7.398,0.092-28.741,2.091-36.737c1.761-7.043,5.877-11.204,8.404-13.185c-1.272-2.577-3.149-7.171-3.161-11.869  c-0.013-5.307,4.22-11.005,6.778-13.963c-1.924-1.964-3.501-4.273-4.648-6.826C46.643,40.668,42.442,49.9,42.442,59.579V116.857z   M136.651,44.477c3.392,0,23.563,0.639,33.742,15.312c0.354-1.348,0.71-2.915,1.002-4.647c-2.934-2.858-13.531-12.211-29.298-15.208  c-11.023-2.096-24.041-1.284-36.633-0.499c-9.361,0.584-19.042,1.188-27.616,0.536c-8.314-0.631-14.076-2.8-18.019-5.227  c1.809,2.758,4.322,5.016,7.344,6.451c4.592,2.182,10.319,3.288,17.021,3.288h52C136.26,44.48,136.414,44.477,136.651,44.477z   M125.356,33.599c6.125,0,12.095,0.361,17.675,1.422c13.856,2.634,23.881,9.605,29.016,13.949c0.089-2.201,0.025-4.528-0.272-6.915  c-6.969-6.976-19.329-11.841-35.824-14.089c-8.735-1.189-18.695,0.165-29.238,1.599c-10.626,1.445-21.613,2.941-31.5,1.64  c-10.966-1.443-15.991-5.392-18.281-8.933c-0.158,0.638-0.241,1.275-0.241,1.898c0,0.235,0.004,0.47,0.013,0.704  c0.813,1.573,5.431,8.886,21.525,10.109c8.229,0.625,17.313,0.06,26.926-0.541C111.869,34.024,118.704,33.599,125.356,33.599z   M128.72,22.519c2.713,0,5.358,0.146,7.906,0.493c13.973,1.904,25.27,5.677,33.214,11.041c-0.293-0.786-0.62-1.57-0.982-2.351  c-0.707-1.521-1.442-2.861-2.537-4.626c-0.021-0.034-0.042-0.069-0.062-0.104C157.976,12.6,129.085,3.454,97.512,5.223  c-8.398,0.471-15.979,1.848-23.176,4.208c-0.029,0.01-0.059,0.019-0.088,0.027c-4.891,1.496-7.89,3.294-9.875,4.486  c-0.482,0.289-0.91,0.544-1.293,0.757l-2.151,1.536c-0.293,0.239-0.572,0.489-0.84,0.749c0.314,1.97,2.398,7.501,15.775,9.262  c9.222,1.215,19.873-0.235,30.173-1.637C113.63,23.578,121.413,22.519,128.72,22.519z M105.47,176.79  c-30.482,0-39.41-10.47-39.774-10.916c-0.875-1.068-0.719-2.643,0.35-3.518c1.062-0.868,2.622-0.721,3.5,0.328  c0.188,0.212,8.378,9.106,35.925,9.106c27.623,0,35.041-8.934,35.113-9.024c0.849-1.069,2.412-1.273,3.493-0.442  c1.082,0.833,1.309,2.363,0.493,3.458C144.235,166.232,136.024,176.79,105.47,176.79z M150.843,169.712  c-0.081,0-0.163-0.004-0.246-0.012c-1.374-0.134-2.379-1.357-2.245-2.731l0.057-0.581c0.246-2.48-0.665-4.865-2.499-6.546  s-4.28-2.384-6.733-1.924c-1.349,0.256-2.663-0.638-2.918-1.996s0.639-2.664,1.996-2.918c4.006-0.754,8.028,0.396,11.034,3.152  c3.006,2.755,4.499,6.663,4.096,10.721l-0.056,0.577C153.202,168.746,152.114,169.712,150.843,169.712z M129.833,124.198  c-8.398,0-15.231-6.833-15.231-15.231c0-8.399,6.833-15.232,15.231-15.232s15.231,6.833,15.231,15.232  C145.064,117.365,138.231,124.198,129.833,124.198z M119.679,107.706c-0.051,0.413-0.077,0.834-0.077,1.261  c0,5.642,4.59,10.231,10.231,10.231c5.642,0,10.231-4.59,10.231-10.231c0-0.427-0.026-0.848-0.077-1.261h-13.995  c0.217,0.37,0.341,0.801,0.341,1.261v0.25c0,1.381-1.119,2.5-2.5,2.5s-2.5-1.119-2.5-2.5v-0.25c0-0.46,0.124-0.891,0.341-1.261  H119.679z M121.745,102.706h16.176c-1.874-2.415-4.803-3.971-8.088-3.971C126.548,98.735,123.619,100.291,121.745,102.706z   M80.36,124.198c-8.398,0-15.231-6.833-15.231-15.231c0-8.399,6.833-15.232,15.231-15.232c8.399,0,15.232,6.833,15.232,15.232  C95.593,117.365,88.76,124.198,80.36,124.198z M70.206,107.706c-0.051,0.413-0.077,0.834-0.077,1.261  c0,5.642,4.59,10.231,10.231,10.231c5.643,0,10.232-4.59,10.232-10.231c0-0.427-0.026-0.848-0.077-1.261H76.52  c0.217,0.37,0.341,0.801,0.341,1.261v0.25c0,1.381-1.119,2.5-2.5,2.5s-2.5-1.119-2.5-2.5v-0.25c0-0.46,0.124-0.891,0.341-1.261  H70.206z M72.272,102.706h16.176c-1.873-2.415-4.802-3.971-8.088-3.971C77.075,98.735,74.146,100.291,72.272,102.706z   M93.091,90.389c-0.371,0-0.749-0.083-1.104-0.259c-7.278-3.591-15.971-3.592-23.251,0c-1.238,0.612-2.738,0.102-3.349-1.135  c-0.61-1.238-0.103-2.737,1.136-3.348c8.667-4.277,19.012-4.276,27.677,0c1.238,0.611,1.746,2.11,1.136,3.348  C94.899,89.877,94.013,90.389,93.091,90.389z M142.562,90.389c-0.371,0-0.749-0.083-1.104-0.259c-7.279-3.592-15.971-3.592-23.25,0  c-1.238,0.612-2.737,0.102-3.349-1.135c-0.61-1.238-0.103-2.737,1.136-3.348c8.664-4.276,19.012-4.276,27.676,0  c1.238,0.611,1.746,2.11,1.136,3.348C144.371,89.877,143.484,90.389,142.562,90.389z" fill="#c7017f"/>
<g>
</g>
<g>
</g>
<g>
</g>
<g>
</g>
<g>
</g>
<g>
</g>
<g>
</g>
<g>
</g>
<g>
</g>
<g>
</g>
<g>
</g>
<g>
</g>
<g>
</g>
<g>
</g>
<g>
</g>
</svg>
