<?xml version="1.0" encoding="iso-8859-1"?>
<!-- Generator: Adobe Illustrator 17.1.0, SVG Export Plug-In . SVG Version: 6.00 Build 0)  -->
<!DOCTYPE svg PUBLIC "-//W3C//DTD SVG 1.1//EN" "http://www.w3.org/Graphics/SVG/1.1/DTD/svg11.dtd">
<svg version="1.1" id="Capa_1" xmlns="http://www.w3.org/2000/svg" xmlns:xlink="http://www.w3.org/1999/xlink" x="0px" y="0px"
	 viewBox="0 0 211.078 211.078" style="enable-background:new 0 0 211.078 211.078;" xml:space="preserve">
<path d="M97.085,211.078c-37.511,0-68.027-30.517-68.027-68.027v-0.988H27.57c-11.568,0-20.98-9.411-20.98-20.979v-9.605
	c0-11.568,9.411-20.979,20.98-20.979h1.487V59.581c0-11.854,5.485-23.12,14.753-30.466c-0.332-1.606-0.506-3.262-0.506-4.942
	c0-4.319,2.3-8.756,6.152-11.868c0.039-0.031,0.078-0.062,0.119-0.091l2.334-1.666c0.083-0.059,0.169-0.113,0.259-0.161
	c0.364-0.198,0.775-0.446,1.248-0.729c2.199-1.319,5.522-3.313,11.015-4.988c7.574-2.484,15.573-3.94,24.415-4.437
	c33.861-1.905,64.038,8.072,73.364,24.253c1.192,1.926,2.004,3.41,2.795,5.11c7.62,16.389,1.421,33.59,0.106,36.863v24.039h1.624
	c11.568,0,20.979,9.411,20.979,20.979v9.605c0,11.568-9.411,20.979-20.979,20.979h-1.624v0.988
	C165.112,180.561,134.596,211.078,97.085,211.078z M34.057,139.562v3.488c0,34.753,28.274,63.027,63.027,63.027
	s63.027-28.274,63.027-63.027v-21.191h-4.429c-0.668,0-1.309-0.268-1.777-0.742c-0.47-0.476-0.73-1.118-0.723-1.786
	c0.004-0.29,0.303-29.082-1.926-37.996c-2.014-8.056-7.763-11.271-8.006-11.404c-0.597-0.325-1.041-0.882-1.221-1.537
	c-0.18-0.654-0.092-1.357,0.254-1.94c0.033-0.056,3.432-5.878,3.582-11.459c0.023-0.88-3.689-3.057-8.553-4.406
	c-5.291-1.099-9.329-1.027-9.431-1.027c-0.021,0.001-0.042,0.001-0.063,0.001h-52c-7.521,0-14.021-1.292-19.314-3.841
	c-0.885-0.427-1.737-0.908-2.554-1.44c-2.335,2.701-5.656,7.305-5.647,10.775c0.014,5.563,3.521,11.301,3.557,11.358
	c0.363,0.589,0.467,1.301,0.286,1.969c-0.182,0.668-0.631,1.23-1.242,1.555c-0.23,0.126-5.979,3.342-7.993,11.397
	c-2.229,8.917-1.93,37.706-1.926,37.996c0.008,0.668-0.253,1.311-0.723,1.786c-0.469,0.475-1.109,0.742-1.777,0.742h-4.429V139.562z
	 M165.249,137.062h1.487c8.812,0,15.979-7.168,15.979-15.979v-9.605c0-8.812-7.168-15.979-15.979-15.979h-1.487V137.062z
	 M27.57,95.498c-8.812,0-15.98,7.168-15.98,15.979v9.605c0,8.812,7.168,15.979,15.98,15.979h1.487V95.498H27.57z M158.199,116.859
	h1.913V66.593c-2.177-4.749-5.54-8.176-9.286-10.647c-0.299,4.373-1.991,8.563-3.147,10.972c2.526,1.973,6.664,6.138,8.431,13.204
	C158.107,88.118,158.223,109.461,158.199,116.859z M34.057,116.859h1.913c-0.023-7.398,0.092-28.741,2.09-36.737
	c1.762-7.043,5.878-11.204,8.405-13.185c-1.272-2.576-3.149-7.171-3.161-11.87c-0.013-5.307,4.219-11.004,6.777-13.963
	c-1.923-1.964-3.5-4.273-4.647-6.825c-7.177,6.391-11.377,15.623-11.377,25.302V116.859z M128.265,44.478
	c3.392,0,23.563,0.639,33.743,15.312c0.354-1.348,0.71-2.915,1.002-4.646c-2.934-2.858-13.531-12.211-29.298-15.209
	c-11.023-2.095-24.042-1.283-36.633-0.499c-9.361,0.584-19.042,1.188-27.616,0.536c-8.313-0.632-14.076-2.801-18.019-5.227
	c1.809,2.758,4.322,5.016,7.344,6.451c4.592,2.181,10.318,3.287,17.021,3.287h52C127.874,44.481,128.029,44.478,128.265,44.478z
	 M116.972,33.6c6.125,0,12.095,0.361,17.675,1.422c13.856,2.635,23.881,9.605,29.016,13.95c0.089-2.201,0.025-4.529-0.272-6.915
	c-6.968-6.977-19.328-11.841-35.824-14.089c-8.732-1.19-18.693,0.164-29.238,1.599c-10.625,1.445-21.613,2.94-31.5,1.64
	c-10.966-1.442-15.991-5.392-18.281-8.933c-0.158,0.638-0.241,1.275-0.241,1.898c0,0.235,0.004,0.471,0.013,0.704
	c0.813,1.572,5.431,8.887,21.525,10.108c8.232,0.628,17.313,0.059,26.926-0.54C103.484,34.026,110.319,33.6,116.972,33.6z
	 M120.335,22.521c2.713,0,5.358,0.146,7.906,0.492c13.973,1.905,25.27,5.678,33.214,11.041c-0.293-0.785-0.62-1.57-0.982-2.351
	c-0.708-1.52-1.443-2.86-2.538-4.627c-0.021-0.034-0.041-0.068-0.061-0.103c-8.291-14.375-37.181-23.515-68.748-21.75
	c-8.399,0.472-15.98,1.848-23.176,4.208c-0.03,0.011-0.066,0.021-0.098,0.03l0,0c-4.908,1.51-7.888,3.297-9.863,4.482
	c-0.482,0.289-0.91,0.545-1.294,0.758l-2.151,1.535c-0.293,0.239-0.572,0.489-0.84,0.75c0.314,1.969,2.398,7.502,15.775,9.262
	c9.222,1.215,19.873-0.235,30.173-1.637C105.245,23.58,113.028,22.521,120.335,22.521z M97.085,172.291
	c-6.984,0-12.667-5.683-12.667-12.667s5.683-12.667,12.667-12.667s12.667,5.683,12.667,12.667S104.069,172.291,97.085,172.291z
	 M97.085,151.957c-4.228,0-7.667,3.439-7.667,7.667s3.439,7.667,7.667,7.667s7.667-3.439,7.667-7.667
	S101.312,151.957,97.085,151.957z M121.242,113.531c-12.333,0-15.18-8.114-15.295-8.459c-0.437-1.311,0.271-2.727,1.581-3.163
	c1.313-0.436,2.726,0.272,3.163,1.581c0.063,0.169,1.973,5.041,10.551,5.041c8.808,0,11.467-5.119,11.576-5.337
	c0.611-1.223,2.102-1.745,3.332-1.148c1.231,0.595,1.763,2.055,1.184,3.294C137.178,105.674,133.367,113.531,121.242,113.531z
	 M71.826,113.531c-12.333,0-15.18-8.114-15.295-8.459c-0.437-1.311,0.271-2.727,1.581-3.163c1.313-0.436,2.726,0.272,3.163,1.581
	c0.063,0.169,1.973,5.041,10.551,5.041c8.808,0,11.467-5.119,11.576-5.337c0.612-1.223,2.101-1.745,3.332-1.148
	c1.231,0.595,1.763,2.055,1.184,3.294C87.762,105.674,83.951,113.531,71.826,113.531z M131.433,91.976
	c-0.294,0-0.592-0.052-0.882-0.162l-19.479-7.344c-1.292-0.486-1.944-1.929-1.457-3.221c0.487-1.293,1.936-1.944,3.221-1.457
	l19.479,7.344c1.292,0.486,1.944,1.929,1.457,3.221C133.395,91.359,132.443,91.976,131.433,91.976z M60.991,91.976
	c-1.01,0-1.962-0.617-2.339-1.619c-0.487-1.292,0.165-2.734,1.457-3.221l19.479-7.344c1.289-0.491,2.734,0.164,3.221,1.457
	c0.487,1.292-0.165,2.734-1.457,3.221l-19.479,7.344C61.583,91.925,61.284,91.976,60.991,91.976z M193.403,68.78h-16.421
	c-1.011,0-1.923-0.609-2.31-1.543c-0.387-0.935-0.173-2.01,0.542-2.725l12.153-12.153h-10.145c-1.381,0-2.5-1.119-2.5-2.5
	s1.119-2.5,2.5-2.5h16.18c1.011,0,1.923,0.609,2.31,1.543c0.387,0.935,0.173,2.01-0.542,2.725L183.017,63.78h10.386
	c1.381,0,2.5,1.119,2.5,2.5S194.784,68.78,193.403,68.78z M201.987,42.397h-25.005c-1.011,0-1.923-0.609-2.31-1.543
	c-0.387-0.935-0.173-2.01,0.542-2.725l20.737-20.738H177.35c-1.381,0-2.5-1.119-2.5-2.5s1.119-2.5,2.5-2.5h24.637
	c1.011,0,1.923,0.609,2.31,1.543c0.387,0.935,0.173,2.01-0.542,2.725l-20.737,20.738h18.97c1.381,0,2.5,1.119,2.5,2.5
	S203.368,42.397,201.987,42.397z"/>
<g>
</g>
<g>
</g>
<g>
</g>
<g>
</g>
<g>
</g>
<g>
</g>
<g>
</g>
<g>
</g>
<g>
</g>
<g>
</g>
<g>
</g>
<g>
</g>
<g>
</g>
<g>
</g>
<g>
</g>
</svg>
