<?xml version="1.0" encoding="iso-8859-1"?>
<!-- Generator: Adobe Illustrator 21.0.2, SVG Export Plug-In . SVG Version: 6.00 Build 0)  -->
<svg version="1.1" id="Capa_1" xmlns="http://www.w3.org/2000/svg" xmlns:xlink="http://www.w3.org/1999/xlink" x="0px" y="0px"
	 viewBox="-49 141 512 512" style="enable-background:new -49 141 512 512;" xml:space="preserve">
<g style="opacity:0.5;">
	<path style="fill:#CCAC00;" d="M219.853,342.781c10.976,32.025,26.602,61.468,46.359,87.553l16.917-12.784
		c-18.337-24.406-32.929-51.912-43.26-81.742L219.853,342.781z"/>
	<g>
		<defs>
			<rect id="SVGID_1_" x="-49" y="141" width="512" height="512"/>
		</defs>
		<clipPath id="SVGID_2_">
			<use xlink:href="#SVGID_1_"  style="overflow:visible;"/>
		</clipPath>
		<path style="clip-path:url(#SVGID_2_);fill:#CCAC00;" d="M522.748,191.356V149H162.981v42.356H57.22v10.589
			c0,104.082,65.858,196.283,164.129,230.117c21.436,30.605,48.167,56.948,79.288,76.835v126.939h-31.896v42.356h-74.123v105.761
			h-31.767V805h31.767h10.589h275.055h10.589h31.767v-21.178h-31.767V678.061h-74.123v-42.356h-31.896V508.767
			c31.121-19.887,57.981-46.23,79.417-76.835c98.271-33.833,164.129-125.776,164.129-229.987v-10.589L522.748,191.356
			L522.748,191.356z M78.657,212.534h84.454v29.959c0,57.077,14.076,111.701,39.386,158.706
			C130.31,365.816,82.402,293.759,78.657,212.534z M469.803,699.239v84.583H215.926v-84.583h52.945h148.117H469.803z
			 M395.809,656.883v21.178H289.92v-21.178h10.718h84.324H395.809z M368.95,493.917l-5.036,3.099v138.69h-41.969v-138.69
			l-5.036-3.099c-82-49.717-132.75-146.05-132.75-251.424v-72.315H501.57v72.315C501.57,347.866,450.82,444.2,368.95,493.917z
			 M483.233,401.328c25.31-47.005,39.515-101.628,39.515-158.835v-29.959h84.454C603.328,294.017,555.419,365.816,483.233,401.328z"
			/>
	</g>
</g>
</svg>
